<?xml version="1.0" encoding="utf-8"?>
<!-- Generator: Adobe Illustrator 28.1.0, SVG Export Plug-In . SVG Version: 6.00 Build 0)  -->
<svg version="1.1" id="Layer_1" xmlns="http://www.w3.org/2000/svg" xmlns:xlink="http://www.w3.org/1999/xlink" x="0px" y="0px"
	 viewBox="0 0 715.1 535.3" style="enable-background:new 0 0 715.1 535.3;" xml:space="preserve">
<style type="text/css">
	.st0{fill:#0068C7;}
	.st1{fill:#F7941D;}
	.st2{fill:#194276;}
	.st3{fill:#F6B015;}
	.st4{fill:#F1F2F2;}
</style>
<polygon class="st0" points="212.5,141 171.8,370.9 238.4,370.9 279.2,141 "/>
<path class="st1" d="M164.3,344.9l-66.1,21c-1.3,0.4-2,1.8-1.7,3.1h0c0.3,1.1,1.3,2,2.5,2h62.3c1.2,0,2.3-0.9,2.5-2.1l3.7-21
	C168,345.9,166.1,344.3,164.3,344.9z"/>
<polygon class="st2" points="306.8,370.9 316.2,370.9 345.8,202.6 336.5,202.6 "/>
<polygon class="st2" points="435.5,370.9 444.9,370.9 474.5,202.6 465.2,202.6 "/>
<polygon class="st2" points="542.4,302.6 537.6,330.2 560.5,424.3 571.4,424.3 "/>
<polygon class="st2" points="600.9,140.8 589.2,140.8 564.6,177.7 560.6,200.2 561.2,200.2 "/>
<polygon class="st0" points="498.5,141 293,141 283.4,194.4 356.6,194.4 325.5,370.8 385.9,370.8 417,194.4 472.8,194.4 "/>
<path class="st3" d="M160,233.8l85.3,58.8c18.7,13.4,26.2,37.6,18.3,59.2l-2.8,7.5l-90.4-63C125.1,258.1,160,233.8,160,233.8z"/>
<polygon class="st0" points="677.8,140.8 610.6,140.8 556.1,222.2 548.2,222.2 562.5,141 510.9,141 485.3,194.2 454.2,370.9
	522,370.9 538.1,279.5 545.6,279.5 580.9,424.3 648.1,424.3 605.7,248.6 "/>
<path class="st1" d="M26.5,161l12.2-0.7l-7.4,7.1c-0.8,0.8-0.7,1,0.3,0.5c6.3-3.2,26.1-13.2,26.1-13.2c-8.5,0.1-20.7,1.2-31.5,5.6
	C25.3,160.8,25.4,161.1,26.5,161z"/>
<path class="st3" d="M263,195.5l-63.8-44.2c0,0-24.4-18.5-48.1-26.9c0,0-19.1-8.1-19.1-8.1c0,0,0,0,0,0c-9.7-5.8-28,0.7-40.9,6.1
	c0,0-34.3,14.2-34.3,14.2c-5.3,3.1-8.4,8.9-8.2,15c0,0,0,0.1,0,0.1c0.3,6.6,5.5,12.1,12,13.1l59.4,3.7c7.7,0.2,14.2-0.3,20.3-3.9
	l0,0c0,0,10.3,1.2,31.5,17.2l0,0l106.6,80.4c0,0,0.1,0,0.1,0l2.7-7.4C288.6,230,281.7,208.8,263,195.5z"/>
<path class="st1" d="M274,248l-101-77.2l0,0c-21.2-16-31.5-17.2-31.5-17.2c-6.1,3.6-12.5,4.1-20.3,3.9l-59.4-3.7
	c-5.6-0.8-10.2-5-11.6-10.3c-1.2,2.4-1.8,5.2-1.7,8c0,0,0,0.1,0,0.1c0.3,6.4,5.1,11.7,11.4,13c0.4,0.1,0.8,0.1,1.2,0.1l58.8,3.6
	c7.5,0.2,14.2-0.3,20.3-3.9c0,0,10.3,1.2,31.5,17.2l0,0l96.6,73.1l-3.3,18.4c5.7-1.7,11.4-6.1,13.3-10.8c0,0,0,0,0-0.1
	C280.2,257,278.4,251.3,274,248z"/>
<path class="st4" d="M88.4,137.9c0,0,5.7-5.4,10-6c4.2-0.6,7.9,0.7,8.2,3c0.3,2.3-3.4,2.7-7.6,3.3C94.7,138.7,88.4,137.9,88.4,137.9
	z"/>
<path class="st1" d="M256.5,345.3L177,289.9c-10.9-9.2-17.2-17.6-20.4-25c-1.9-6.1-1.6-15.3,8-26c0.8-0.8,1.7-0.8,3.6,0.5l0,0
	l15.9,10.9l3.6-20.2l-14.3-0.1c-8.4,0-13.2,3.8-13.2,3.8s-34.9,24.4,10.5,62.6l79,55c0.8,0.6,1.2,1.5,1,2.5l-2.9,16.1
	c5.7-1.7,11.4-5.7,13.3-10.7C262.8,354.1,261,348.4,256.5,345.3z"/>
</svg>
