<?xml version="1.0" encoding="UTF-8"?> <!-- Generator: Adobe Illustrator 21.1.0, SVG Export Plug-In . SVG Version: 6.00 Build 0) --> <svg xmlns="http://www.w3.org/2000/svg" xmlns:xlink="http://www.w3.org/1999/xlink" id="Layer_1" x="0px" y="0px" viewBox="0 0 792 612" xml:space="preserve"> <polygon fill="#064F8C" points="251,179.3 210.2,409.2 276.8,409.2 317.6,179.3 "></polygon> <path fill="#F7941D" d="M202.8,383.2l-66.1,21c-1.3,0.4-2,1.8-1.7,3.1l0,0c0.3,1.1,1.3,2,2.5,2h62.3c1.2,0,2.3-0.9,2.5-2.1l3.7-21 C206.4,384.2,204.6,382.6,202.8,383.2z"></path> <polygon fill="#073E66" points="345.2,409.2 354.6,409.2 384.3,240.9 374.9,240.9 "></polygon> <polygon fill="#073E66" points="473.9,409.2 483.3,409.2 513,240.9 503.6,240.9 "></polygon> <polygon fill="#073E66" points="580.9,340.9 576,368.5 598.9,462.6 609.9,462.6 "></polygon> <polygon fill="#073E66" points="639.4,179.2 627.7,179.2 603,216 599,238.6 599.6,238.6 "></polygon> <polygon fill="#064F8C" points="537,179.3 331.5,179.3 321.8,232.8 395,232.8 363.9,409.2 424.3,409.2 455.4,232.8 511.3,232.8 "></polygon> <path fill="#F6B015" d="M198.5,272.1l85.3,58.8c18.7,13.4,26.2,37.6,18.3,59.2l-2.8,7.5l-90.4-63 C163.6,296.5,198.5,272.1,198.5,272.1z"></path> <polygon fill="#064F8C" points="716.2,179.1 649,179.1 594.5,260.6 586.6,260.6 601,179.3 549.3,179.3 523.8,232.5 492.6,409.2 560.4,409.2 576.5,317.8 584.1,317.8 619.3,462.6 686.5,462.6 644.1,286.9 "></polygon> <path fill="#F7941D" d="M65,199.4l12.2-0.7l-7.4,7.1c-0.8,0.8-0.7,1,0.3,0.5c6.3-3.2,26.1-13.2,26.1-13.2 c-8.5,0.1-20.7,1.2-31.5,5.6C63.8,199.1,63.8,199.5,65,199.4z"></path> <path fill="#F6B015" d="M301.4,233.8l-63.8-44.2c0,0-24.4-18.5-48.1-26.9c0,0-19.1-8.1-19.1-8.1c0,0,0,0,0,0 c-9.7-5.8-28,0.7-40.9,6.1c0,0-34.3,14.2-34.3,14.2c-5.3,3.1-8.4,8.9-8.2,15c0,0,0,0.1,0,0.1c0.3,6.6,5.5,12.1,12,13.1l59.4,3.7 c7.7,0.2,14.2-0.3,20.3-3.9l0,0c0,0,10.3,1.2,31.5,17.2c0,0,0,0,0,0l106.6,80.4c0,0,0.1,0,0.1,0l2.7-7.4 C327.1,268.3,320.1,247.2,301.4,233.8z"></path> <path fill="#F7941D" d="M312.5,286.3l-101-77.2l0,0C190.3,193.2,180,192,180,192c-6.1,3.6-12.5,4.1-20.3,3.9l-59.4-3.7 c-5.6-0.8-10.2-5-11.6-10.3c-1.2,2.4-1.8,5.2-1.7,8c0,0,0,0.1,0,0.1c0.3,6.4,5.1,11.7,11.4,13c0.4,0.1,0.8,0.1,1.2,0.1l58.8,3.6 c7.5,0.2,14.2-0.3,20.3-3.9c0,0,10.3,1.2,31.5,17.2l0,0l96.6,73.1l-3.3,18.4c5.7-1.7,11.4-6.1,13.3-10.8c0,0,0,0,0-0.1 C318.7,295.4,316.8,289.6,312.5,286.3z"></path> <path fill="#F1F2F2" d="M126.8,176.3c0,0,5.7-5.4,10-6s7.9,0.7,8.2,3c0.3,2.3-3.4,2.7-7.6,3.3C133.2,177.1,126.8,176.3,126.8,176.3z "></path> <path fill="#F7941D" d="M295,383.6l-79.5-55.4c-10.9-9.2-17.2-17.6-20.4-25c-1.9-6.1-1.6-15.3,8-26c0.8-0.8,1.7-0.8,3.6,0.5l0,0 l15.9,10.9l3.6-20.2l-14.3-0.1c-8.4,0-13.2,3.8-13.2,3.8s-34.9,24.4,10.5,62.6l79,55c0.8,0.6,1.2,1.5,1,2.5l-2.9,16.1 c5.7-1.7,11.4-5.7,13.3-10.7C301.3,392.5,299.4,386.7,295,383.6z"></path> </svg>