<?xml version="1.0" standalone="no"?>
<!DOCTYPE svg PUBLIC "-//W3C//DTD SVG 20010904//EN"
 "http://www.w3.org/TR/2001/REC-SVG-20010904/DTD/svg10.dtd">
<svg version="1.0" xmlns="http://www.w3.org/2000/svg"
 width="792.000000pt" height="792.000000pt" viewBox="0 0 792.000000 792.000000"
 preserveAspectRatio="xMidYMid meet">
<metadata>
Created by potrace 1.14, written by Peter Selinger 2001-2017
</metadata>
<g transform="translate(0.000000,792.000000) scale(0.100000,-0.100000)"
fill="#000000" stroke="none">
<path d="M1568 5495 c-2 -2 -21 -5 -43 -8 -41 -5 -147 -38 -200 -62 -16 -7
-109 -45 -205 -85 -97 -40 -187 -83 -202 -97 -32 -30 -52 -84 -45 -119 5 -30
-7 -40 -63 -49 -64 -9 -160 -36 -160 -44 0 -4 28 -5 62 -3 l63 5 -33 -28 c-38
-31 -43 -55 -7 -31 13 9 31 16 39 16 8 0 16 3 18 8 2 4 25 18 53 30 41 20 51
21 60 10 24 -33 63 -48 140 -53 44 -3 114 -7 155 -10 218 -15 265 -17 375 -18
123 -1 138 1 190 22 55 23 167 -36 405 -212 74 -55 137 -103 140 -107 3 -3 21
-17 40 -30 38 -26 51 -41 45 -51 -3 -3 -7 -28 -9 -54 -3 -26 -8 -55 -10 -64
-3 -9 -7 -29 -10 -46 -8 -46 -15 -88 -21 -115 -3 -14 -8 -41 -11 -60 -3 -19
-7 -42 -9 -50 -2 -8 -7 -35 -10 -60 -4 -25 -8 -46 -9 -47 -1 -1 -21 10 -44 26
-23 15 -40 29 -38 32 2 2 7 20 10 39 3 19 10 59 16 89 5 29 10 57 10 61 0 4
-49 6 -108 5 -97 -2 -112 -5 -149 -28 -88 -56 -145 -152 -145 -247 0 -64 30
-157 67 -205 14 -19 25 -37 25 -41 0 -8 147 -154 155 -154 11 0 104 -72 108
-83 2 -7 -2 -41 -9 -77 -6 -36 -15 -83 -18 -105 -4 -22 -8 -47 -11 -55 -7 -26
-16 -74 -17 -90 0 -8 -4 -31 -8 -50 -5 -19 -11 -55 -15 -80 -3 -25 -12 -76
-19 -113 -7 -39 -9 -70 -4 -73 7 -5 506 -8 634 -5 16 1 23 9 28 34 3 17 8 42
10 53 2 12 7 39 10 60 3 22 9 51 12 67 l6 27 39 -27 c37 -26 39 -31 35 -68 -6
-48 -15 -96 -21 -112 -8 -23 15 -24 50 -3 46 29 82 73 90 112 4 18 11 38 15
43 5 6 11 30 15 55 4 24 9 48 11 52 6 9 6 112 0 148 -13 89 -48 169 -107 244
-40 50 -41 60 -24 146 3 14 19 107 37 207 34 199 31 195 91 139 15 -14 26 -30
23 -35 -6 -8 -17 -72 -21 -117 -1 -11 -5 -25 -9 -32 -11 -19 12 -14 56 10 31
18 79 74 84 98 0 3 3 12 7 20 36 93 49 207 35 310 -4 25 -7 45 -8 45 -1 0 -3
8 -5 18 -7 36 -60 130 -97 172 -27 31 -36 49 -33 66 3 13 8 39 11 58 3 18 8
43 10 55 2 11 11 59 19 106 8 47 17 95 19 107 3 11 8 43 12 70 9 52 11 62 13
66 1 1 4 18 6 38 2 19 5 42 7 50 3 12 -45 14 -329 15 -372 2 -336 10 -348 -76
-9 -70 -11 -79 -17 -86 -4 -3 -58 29 -120 73 -178 124 -287 184 -488 268 -36
15 -78 33 -95 40 -90 39 -114 47 -157 50 -26 1 -48 1 -50 0z"/>
<path d="M3322 5221 c-9 -6 -20 -43 -27 -98 -2 -15 -20 -115 -40 -222 -19
-107 -35 -198 -35 -202 0 -4 152 -8 338 -8 185 0 349 0 365 -1 24 0 27 -3 22
-27 -3 -16 -8 -43 -11 -62 -3 -18 -8 -43 -10 -55 -2 -11 -7 -37 -10 -56 -3
-19 -7 -46 -10 -60 -3 -14 -7 -38 -9 -55 -3 -16 -7 -41 -10 -55 -3 -14 -23
-126 -45 -250 -22 -124 -42 -234 -44 -245 -2 -11 -7 -42 -10 -69 -4 -27 -9
-53 -11 -57 -3 -4 -7 -27 -10 -50 -3 -24 -13 -80 -21 -124 -9 -44 -17 -94 -19
-111 -2 -18 -10 -65 -19 -105 -8 -41 -17 -94 -21 -119 -3 -25 -8 -52 -10 -60
-2 -8 -6 -31 -9 -50 -3 -19 -8 -46 -11 -60 -19 -91 -19 -90 6 -91 29 0 499 0
550 0 21 1 36 6 36 14 0 11 37 223 48 277 3 14 8 43 11 65 8 56 12 80 14 80 1
0 3 9 4 20 1 11 6 38 10 60 9 44 12 62 20 115 3 19 8 46 11 60 3 14 7 39 10
55 2 17 9 57 15 90 6 33 13 74 16 90 3 17 7 41 10 55 5 26 51 291 60 345 2 17
7 37 9 45 2 8 6 31 9 50 3 19 14 85 25 145 11 61 23 126 26 145 3 19 10 39 14
43 5 5 132 8 283 9 l274 0 24 51 c13 29 61 131 108 227 46 96 92 193 102 216
l18 41 -1018 0 c-560 0 -1023 -3 -1028 -6z"/>
<path d="M5440 5116 c-29 -61 -79 -164 -110 -228 -32 -64 -55 -119 -52 -122 3
-3 1 -6 -4 -6 -6 0 -16 -17 -24 -37 -15 -41 -15 -40 -24 -97 -4 -21 -8 -48
-11 -60 -2 -12 -7 -37 -9 -56 -3 -19 -19 -107 -35 -195 -16 -88 -32 -180 -36
-205 -3 -25 -8 -52 -11 -61 -2 -9 -7 -32 -9 -50 -3 -19 -7 -45 -10 -59 -7 -33
-23 -126 -30 -170 -3 -19 -8 -46 -10 -60 -3 -14 -7 -36 -10 -50 -3 -14 -7 -38
-11 -53 -3 -16 -7 -38 -8 -50 -3 -21 -15 -92 -22 -132 -3 -18 -9 -47 -29 -160
-3 -16 -12 -70 -20 -120 -9 -49 -18 -101 -21 -115 -19 -100 -19 -100 18 -100
59 -1 521 -1 585 -1 l61 1 7 53 c4 28 9 61 11 72 13 67 60 331 68 385 3 19 8
45 10 56 2 12 7 37 10 55 3 19 7 43 10 54 2 11 7 40 11 65 4 25 9 56 12 70 2
14 7 34 10 45 4 11 7 29 7 39 1 20 7 21 73 17 9 -1 14 -4 11 -7 -4 -3 4 -45
17 -92 22 -84 31 -124 40 -167 2 -11 19 -83 39 -160 29 -116 75 -306 92 -374
2 -9 8 -36 15 -61 6 -25 12 -52 14 -60 2 -8 11 -44 20 -80 9 -36 18 -76 21
-90 3 -14 14 -61 25 -105 12 -44 23 -87 25 -95 2 -8 10 -41 17 -73 8 -31 12
-57 9 -57 -2 0 0 -6 6 -13 9 -10 81 -13 344 -11 183 0 334 2 336 3 1 0 -2 9
-7 20 -6 10 -13 31 -16 47 -6 38 -10 56 -30 139 -20 83 -23 98 -30 126 -2 11
-7 29 -10 39 -5 17 -8 27 -20 83 -3 12 -17 69 -31 127 -15 58 -28 112 -29 120
-1 8 -5 25 -9 37 -4 12 -8 30 -10 40 -2 10 -9 36 -14 58 -6 22 -13 51 -16 65
-3 14 -16 71 -30 127 -14 56 -27 113 -30 127 -3 14 -7 30 -10 35 -4 5 -8 22
-10 38 -5 32 -10 54 -25 109 -18 66 -91 373 -95 397 -3 20 66 137 86 145 4 2
8 8 8 13 0 5 87 137 193 294 105 157 201 300 212 318 37 59 159 242 165 247 3
3 16 22 29 43 l23 37 -336 0 -336 0 -97 -147 c-54 -82 -102 -152 -106 -158 -5
-5 -83 -122 -175 -260 l-167 -250 -38 -1 -39 -1 6 42 c9 58 14 88 32 180 8 44
17 91 19 105 5 37 15 92 20 120 3 14 7 39 10 55 4 30 7 46 25 140 5 28 12 66
15 85 3 19 8 47 11 61 l5 26 -259 0 -260 1 -52 -112z"/>
<path d="M6261 5205 c-11 -14 -21 -27 -21 -30 0 -2 -15 -25 -32 -50 -18 -26
-38 -54 -43 -63 -19 -32 -50 -77 -55 -82 -30 -29 -81 -128 -89 -176 -6 -33
-13 -69 -15 -80 -19 -95 -17 -109 8 -65 24 43 250 376 258 379 4 2 8 8 8 13 0
6 20 38 43 72 76 108 75 105 13 106 -44 0 -57 -4 -75 -24z"/>
<path d="M3749 4605 c-1 -3 -2 -8 -3 -12 -2 -7 -17 -93 -32 -183 -7 -46 -54
-305 -59 -330 -3 -14 -7 -38 -10 -55 -2 -16 -7 -43 -10 -60 -3 -16 -8 -41 -10
-55 -3 -14 -7 -36 -9 -50 -3 -14 -8 -41 -10 -60 -3 -19 -8 -46 -11 -60 -3 -14
-7 -40 -10 -59 -2 -18 -7 -41 -9 -50 -3 -9 -7 -34 -11 -56 -3 -22 -12 -76 -20
-120 -8 -44 -17 -93 -20 -110 -2 -16 -10 -56 -15 -87 -6 -32 -13 -68 -15 -80
-5 -25 -13 -79 -22 -143 -3 -22 -9 -47 -13 -56 -10 -17 -7 -50 3 -49 4 0 24 0
46 0 37 0 39 1 46 43 4 23 9 56 11 72 2 17 8 50 14 75 5 25 12 59 14 75 2 17
5 30 6 30 1 0 3 11 5 25 3 34 15 102 20 120 2 8 6 33 10 55 5 35 37 220 49
281 3 12 7 39 10 60 4 22 11 63 17 93 6 30 12 64 14 75 1 12 7 48 14 81 6 33
13 77 17 99 5 37 7 48 18 106 3 14 8 41 10 60 3 19 8 46 11 60 3 14 8 41 10
60 3 19 8 46 11 60 9 40 11 52 18 103 l7 47 -46 0 c-25 0 -46 -2 -46 -5z"/>
<path d="M5037 4603 c-4 -8 -14 -55 -23 -113 -2 -14 -7 -41 -10 -60 -4 -19 -8
-44 -10 -55 -11 -67 -14 -85 -24 -135 -6 -30 -13 -71 -16 -90 -3 -19 -7 -46
-10 -60 -10 -56 -13 -69 -18 -101 -3 -19 -10 -59 -16 -89 -6 -30 -13 -71 -16
-90 -3 -19 -7 -46 -10 -60 -2 -14 -7 -38 -9 -55 -3 -16 -7 -41 -10 -55 -7 -37
-24 -130 -31 -174 -3 -21 -8 -48 -10 -60 -2 -11 -7 -36 -10 -55 -3 -18 -8 -43
-10 -55 -4 -21 -10 -58 -18 -106 -2 -14 -7 -36 -10 -50 -3 -14 -8 -41 -11 -60
-2 -19 -7 -46 -10 -60 -15 -73 -16 -90 -9 -91 89 -7 91 -6 100 64 2 18 7 46
10 62 4 17 8 37 9 45 10 76 18 126 21 131 2 4 6 28 9 55 4 26 9 52 11 56 3 5
7 26 9 46 2 20 10 73 19 117 20 107 25 134 32 175 3 19 7 42 10 50 3 8 8 37
11 65 3 27 7 53 9 56 2 4 6 31 10 60 3 30 9 58 12 64 4 5 7 22 8 36 1 14 9 64
18 110 8 46 18 104 21 129 4 24 9 48 12 52 5 9 14 76 16 116 1 12 3 22 7 22 3
0 6 15 8 33 2 33 9 72 12 72 1 0 3 15 5 33 3 32 3 32 -40 32 -24 0 -46 -3 -48
-7z"/>
<path d="M5803 3588 c-1 -18 -12 -82 -24 -143 -19 -101 -18 -119 22 -279 22
-89 42 -168 44 -176 2 -8 11 -46 20 -85 9 -38 18 -78 20 -88 2 -10 7 -28 11
-40 4 -12 8 -31 9 -42 2 -11 10 -44 18 -72 9 -29 14 -53 11 -53 -3 0 0 -9 6
-21 6 -11 12 -34 12 -50 1 -16 5 -32 10 -35 4 -3 8 -13 8 -22 0 -9 5 -33 10
-53 10 -35 11 -35 62 -35 51 1 53 2 50 26 -2 14 -8 39 -13 57 -6 17 -12 44
-15 60 -3 15 -7 36 -10 45 -5 18 -12 48 -20 88 -3 14 -9 39 -14 55 -5 17 -11
44 -14 60 -2 17 -10 46 -16 65 -6 19 -13 50 -16 69 -3 19 -10 45 -15 58 -5 13
-7 23 -4 23 2 0 -1 15 -7 33 -5 17 -11 41 -13 52 -2 11 -15 67 -30 125 -14 58
-28 116 -31 130 -3 14 -10 43 -16 65 -6 22 -12 45 -13 50 0 6 -7 37 -14 70
-14 59 -27 88 -28 63z"/>
<path d="M1870 3138 c-85 -27 -235 -75 -332 -105 -171 -54 -203 -72 -178 -97
6 -6 124 -10 326 -10 336 -1 334 -1 341 47 2 12 10 59 19 105 16 86 14 113 -8
111 -7 0 -83 -23 -168 -51z"/>
</g>
</svg>
