/* XPM */
static char *itkLogoSmallTransparentBackground[] = {
/* columns rows colors chars-per-pixel */
"100 48 158 2 ",
"   c None",
".  c #154175",
"X  c #154275",
"o  c #154276",
"O  c #5A797F",
"+  c #7D7F69",
"@  c #797E6C",
"#  c #6C7C73",
"$  c #6E7D72",
"%  c #697C76",
"&  c #57837E",
"*  c #58837E",
"=  c #5A847C",
"-  c #7E8E64",
";  c #7F8E64",
":  c #688773",
">  c #6C8970",
",  c #F3941F",
"<  c #F7941D",
"1  c #F7951D",
"2  c #F7961C",
"3  c #F7971C",
"4  c #F7961D",
"5  c #F4951E",
"6  c #F4951F",
"7  c #F5961E",
"8  c #FB941A",
"9  c #FB941B",
"0  c #FA951B",
"q  c #FB951B",
"w  c #F9971B",
"e  c #FD9519",
"r  c #F8941C",
"t  c #F8941D",
"y  c #F79A1B",
"u  c #F79B1B",
"i  c #F79C1A",
"p  c #F79D1A",
"a  c #F79E1A",
"s  c #F79F1A",
"d  c #F7981C",
"f  c #F7991C",
"g  c #FA9B19",
"h  c #F9981B",
"j  c #FA981A",
"k  c #FA991A",
"l  c #F99A1A",
"z  c #F89B1A",
"x  c #FA9C19",
"c  c #FA9D19",
"v  c #F99F19",
"b  c #FA9F18",
"n  c #F89D1A",
"m  c #EFAE1A",
"M  c #E9AD1E",
"N  c #E8AC1F",
"B  c #ECAE1C",
"V  c #F8A517",
"C  c #F8A617",
"Z  c #F8A717",
"A  c #F8A916",
"S  c #F8A817",
"D  c #F8A917",
"F  c #F8AA16",
"G  c #F8AB16",
"H  c #F8AC15",
"J  c #F8AD15",
"K  c #F8AE15",
"L  c #F8AF15",
"P  c #F8AC16",
"I  c #F7A019",
"U  c #F7A119",
"Y  c #F7A219",
"T  c #F9A118",
"R  c #F8A218",
"E  c #F8A318",
"W  c #F9A318",
"Q  c #F8A418",
"!  c #F8A518",
"~  c #F8A618",
"^  c #F3B017",
"/  c #F5B016",
"(  c #F4B017",
")  c #F8B011",
"_  c #F8B012",
"`  c #F8B113",
"'  c #F9B113",
"]  c #FBB212",
"[  c #FAB213",
"{  c #FEB111",
"}  c #F8B014",
"|  c #F8B114",
" . c #F9B114",
".. c #F8B217",
"X. c #F8B219",
"o. c #F8B41D",
"O. c #DD8F2D",
"+. c #C78B3B",
"@. c #C08A3F",
"#. c #C58B3D",
"$. c #CD8D38",
"%. c #D48E33",
"&. c #E79127",
"*. c #EF9322",
"=. c #E3902A",
"-. c #E49129",
";. c #F19321",
":. c #F39420",
">. c #DFAA25",
",. c #D2A62D",
"<. c #D0A52F",
"1. c #D4A72C",
"2. c #C6A335",
"3. c #F8B627",
"4. c #F7B92E",
"5. c #92835C",
"6. c #998458",
"7. c #929458",
"8. c #A5994B",
"9. c #A2984D",
"0. c #B69E40",
"q. c #A28553",
"w. c #A68650",
"e. c #F7BF44",
"r. c #F7C24E",
"t. c #27759D",
"y. c #24749F",
"u. c #2A719D",
"i. c #29769C",
"p. c #3B7492",
"a. c #377A93",
"s. c #0B6DAF",
"d. c #0C6CAF",
"f. c #1C6FA5",
"g. c #1D6FA5",
"h. c #126FAA",
"j. c #156EA9",
"k. c #1D72A4",
"l. c #1670A8",
"z. c #056BB3",
"x. c #016AB5",
"c. c #0069B7",
"v. c #006AB6",
"b. c #016AB6",
"n. c #006AB7",
"m. c #006BB7",
"M. c #086BB1",
"N. c #0A6DB0",
"B. c #0069B8",
"V. c #006AB8",
"C. c #006BB8",
"Z. c #2170A2",
"A. c #487F87",
"S. c #47768B",
"D. c #43758D",
"F. c #467E89",
"G. c #F5D48C",
"H. c #F5DCA7",
/* pixels */
"                        } } } } }                                                                                                                                                                       ",
"                    } } } } } } } } }                                                                                                                                                                   ",
"              } } } 4.r.3.} } } } } } } }                                                                                                                                                               ",
"          } } } } 3.G.H.e.} } } } } } } } } }                                                                                                                                                           ",
"        } } } } } } X.X.} } } } } } } } } } } } }         n.n.n.n.n.n.n.n.n.n.    n.n.n.n.n.n.n.n.n.n.n.n.n.n.n.n.n.n.n.n.n.n.n.n.n.n.n.n.n.n.n.    n.n.n.n.n.n.n.n.        o o     n.n.n.n.n.n.n.n.n.n.",
"        ! L } } } } } } } } } } } } } } } } } } } }     V.n.n.n.n.n.n.n.n.n.n.    n.n.n.n.n.n.n.n.n.n.n.n.n.n.n.n.n.n.n.n.n.n.n.n.n.n.n.n.n.n.n.    n.n.n.n.n.n.n.n.        o     n.n.n.n.n.n.n.n.n.n.  ",
"      < < y y y y U ! ! Z Z L L Z y y L } } } } } } } ( t.V.n.n.n.n.n.n.n.n.      n.n.n.n.n.n.n.n.n.n.n.n.n.n.n.n.n.n.n.n.n.n.n.n.n.n.n.n.n.n.    n.n.n.n.n.n.n.n.n.      o o   n.n.n.n.n.n.n.n.n.n.    ",
"    <     < < < < < < < < < < < < < < < y L } } } } } } 2.F.n.n.n.n.n.n.n.n.    n.n.n.n.n.n.n.n.n.n.n.n.n.n.n.n.n.n.n.n.n.n.n.n.n.n.n.n.n.n.n.    n.n.n.n.n.n.n.n.n.    o o   n.n.n.n.n.n.n.n.n.n.n.    ",
"                                      < < y Z } } } } } } m - j.V.n.n.n.n.n.    n.n.n.n.n.n.n.n.n.n.n.n.n.n.n.n.n.n.n.n.n.n.n.n.n.n.n.n.n.n.    n.n.n.n.n.n.n.n.n.n.    o     n.n.n.n.n.n.n.n.n.n.      ",
"                                          < < U L } } } } } } 0.a.n.n.n.n.n.    n.n.n.n.n.n.n.n.n.n.n.n.n.n.n.n.n.n.n.n.n.n.n.n.n.n.n.n.n.n.    n.n.n.n.n.n.n.n.n.    o o   n.n.n.n.n.n.n.n.n.n.        ",
"                                            < < y L } } } } } } >.: s.n.n.n.    n.n.n.n.n.n.n.n.n.n.n.n.n.n.n.n.n.n.n.n.n.n.n.n.n.n.n.n.n.n.  n.n.n.n.n.n.n.n.n.n.    o   n.n.n.n.n.n.n.n.n.n.n.        ",
"                                                < y L } } } } } } ( 9.i.V.n.    n.n.n.n.n.n.n.n.n.n.n.n.n.n.n.n.n.n.n.n.n.n.n.n.n.n.n.n.n.    n.n.n.n.n.n.n.n.n.n.  o     n.n.n.n.n.n.n.n.n.n.          ",
"                                                  < < ! } } } } } } } ,.&                           n.n.n.n.n.n.n.n.n.n.n.                  n.n.n.n.n.n.n.n.n.n.n.      n.n.n.n.n.n.n.n.n.n.            ",
"                                                    ;.< l L } } } } } } m ,.                          n.n.n.n.n.n.n.n.n.                    n.n.n.n.n.n.n.n.n.n.n.    n.n.n.n.n.n.n.n.n.n.n.            ",
"                                                      # O.l L } } } } } } }                     o   n.n.n.n.n.n.n.n.n.n.              o o   n.n.n.n.n.n.n.n.n.n.n.    n.n.n.n.n.n.n.n.n.n.              ",
"                                                      n.p.#.q Z } } } } } } }                 o o   n.n.n.n.n.n.n.n.n.                o o   n.n.n.n.n.n.n.n.n.n.    n.n.n.n.n.n.n.n.n.n.                ",
"                                                      n.V.f.6.< ! L } } } } }                 o o   n.n.n.n.n.n.n.n.n.                o     n.n.n.n.n.n.n.n.n.n.  n.n.n.n.n.n.n.n.n.n.n.                ",
"                                                    n.n.n.n.N.# =.l L } } } } }               o     n.n.n.n.n.n.n.n.n.                o     n.n.n.n.n.n.n.n.n.n.n.n.n.n.n.n.n.n.n.n.n.                  ",
"                                          < < < q   n.n.n.n.n.n.S.#.l L } } } }               o     n.n.n.n.n.n.n.n.n.                o   n.n.n.n.n.n.n.n.n.n.n.n.n.n.n.n.n.n.n.n.n.                    ",
"                                        < ! y < q   n.n.n.n.n.n.V.Z.q.< ! } } }               o     n.n.n.n.n.n.n.n.n.              o o   n.n.n.n.n.n.n.n.n.n.n.n.n.n.n.n.n.n.n.n.n.                    ",
"                                      < U } L U     n.n.n.n.n.n.n.V.s.+ ;.l L }             o o   n.n.n.n.n.n.n.n.n.n.              o o   n.n.n.n.n.n.n.n.n.n.n.n.n.n.n.n.n.n.n.n.                      ",
"                                      < L } } } } * n.n.n.n.n.n.n.n.n.n.  q y               o o   n.n.n.n.n.n.n.n.n.                o     n.n.n.n.n.n.n.n.n.n.n.n.n.n.n.n.n.n.n.n.                      ",
"                                      y L } } } } >.: N.n.n.n.n.n.n.n.n.  < <               o o   n.n.n.n.n.n.n.n.n.                o     n.n.n.n.n.n.n.n.n.n.n.n.n.n.n.n.n.n.n.n.                      ",
"                                      < L } } } } } ( 9.t.V.n.n.n.n.n.    <                 o     n.n.n.n.n.n.n.n.n.                o     n.n.n.n.n.n.n.n.n.n.n.n.n.n.n.n.n.n.n.n.n.                    ",
"                                      < y } } } } } } } ,.* n.n.n.n.n.                      o     n.n.n.n.n.n.n.n.n.              o o   n.n.n.n.n.n.n.n.n.n.n.n.n.n.n.n.n.n.n.n.n.n.                    ",
"                                        < U } } } } } } } m 7.k.V.n.n.                      o   n.n.n.n.n.n.n.n.n.n.              o o   n.n.n.n.n.n.n.n.n.n.n.n.n.n.n.n.n.n.n.n.n.n.                    ",
"                                          < ! } } } } } } } } 2.A.n.n.                    o o   n.n.n.n.n.n.n.n.n.n.              o o   n.n.n.n.n.n.n.n.n.n.    n.n.n.n.n.n.n.n.n.n.                    ",
"                                          < < U L } } } } } } } m - l.                    o o   n.n.n.n.n.n.n.n.n.                o     n.n.n.n.n.n.n.n.n.n.    n.n.n.n.n.n.n.n.n.n.n.                  ",
"                                              < l L } } } } } } } ( ,.                    o o   n.n.n.n.n.n.n.n.n.                o     n.n.n.n.n.n.n.n.n.n.    n.n.n.n.n.n.n.n.n.n.n.                  ",
"                                                $.< ! L } } } } } } } }                   o     n.n.n.n.n.n.n.n.n.                o     n.n.n.n.n.n.n.n.n.n.      n.n.n.n.n.n.n.n.n.n.                  ",
"                                                j.+ &.l L } } } } } } }                   o     n.n.n.n.n.n.n.n.n.              o o   n.n.n.n.n.n.n.n.n.n.n.      n.n.n.n.n.n.n.n.n.n.                  ",
"                                                n.n.S.#.l Z } } } } } } }                 o   n.n.n.n.n.n.n.n.n.n.              o o   n.n.n.n.n.n.n.n.n.n.n.  o   n.n.n.n.n.n.n.n.n.n.                  ",
"                                                n.n.V.f.5.*.l L } } } } }               o o   n.n.n.n.n.n.n.n.n.n.              o o   n.n.n.n.n.n.n.n.n.n.    o   n.n.n.n.n.n.n.n.n.n.n.                ",
"                                                n.n.n.n.n.O %.l L } } } }               o o   n.n.n.n.n.n.n.n.n.                o     n.n.n.n.n.n.n.n.n.n.    o     n.n.n.n.n.n.n.n.n.n.                ",
"                                              n.n.n.n.n.n.V.i.w.< ! L } }               o     n.n.n.n.n.n.n.n.n.                o     n.n.n.n.n.n.n.n.n.n.    o     n.n.n.n.n.n.n.n.n.n.                ",
"                                              n.n.n.n.n.n.n.n.s.# =.l L }               o     n.n.n.n.n.n.n.n.n.                o   n.n.n.n.n.n.n.n.n.n.n.    o o   n.n.n.n.n.n.n.n.n.n.                ",
"                                      < < q   n.n.n.n.n.n.n.n.n.n.  q y L               o     n.n.n.n.n.n.n.n.n.              o o   n.n.n.n.n.n.n.n.n.n.n.    o o   n.n.n.n.n.n.n.n.n.n.n.              ",
"                                < < < < < q   n.n.n.n.n.n.n.n.n.n.  q <               o o   n.n.n.n.n.n.n.n.n.n.              o o   n.n.n.n.n.n.n.n.n.n.      o o     n.n.n.n.n.n.n.n.n.n.              ",
"                          < < < < < < < <     n.n.n.n.n.n.n.n.n.n.  q <               o o   n.n.n.n.n.n.n.n.n.                o o   n.n.n.n.n.n.n.n.n.n.        o     n.n.n.n.n.n.n.n.n.n.              ",
"                      < < < < < < < < < <     n.n.n.n.n.n.n.n.n.                      o     n.n.n.n.n.n.n.n.n.                o     n.n.n.n.n.n.n.n.n.n.        o o   n.n.n.n.n.n.n.n.n.n.              ",
"                                                                                                                                                                o o   n.n.n.n.n.n.n.n.n.n.n.            ",
"                                                                                                                                                                o o     n.n.n.n.n.n.n.n.n.n.            ",
"                                                                                                                                                                  o     n.n.n.n.n.n.n.n.n.n.            ",
"                                                                                                                                                                  o o   n.n.n.n.n.n.n.n.n.n.            ",
"                                                                                                                                                                  o o   n.n.n.n.n.n.n.n.n.n.n.          ",
"                                                                                                                                                                  o o     n.n.n.n.n.n.n.n.n.n.          ",
"                                                                                                                                                                    o     n.n.n.n.n.n.n.n.n.n.          ",
"                                                                                                                                                                    o o   n.n.n.n.n.n.n.n.n.n.          "
};
